<svg width="563" height="497" viewBox="0 0 563 497" fill="none" xmlns="http://www.w3.org/2000/svg">
<g filter="url(#filter0_d_2:20)">
<g style="mix-blend-mode:luminosity" filter="url(#filter1_d_2:20)">
<path fill-rule="evenodd" clip-rule="evenodd" d="M161.5 29.5H134.5L114 40L93.5 67L57.5 81L41 102.5L32 122L14 152.5L5 178.5L14 204L5 233.5V255.5L14 276L32 299L57.5 315.5L83.5 340L114 349L145 340L170.5 329.5L179.5 349L205 363L227 373.5L263 381L296.5 373.5L309 399L319.5 413L350 428.5L370.5 446.5L390 469.5L401.5 487.5L424.5 481L440 469.5L424.5 446.5L432.5 428.5L453 417L473.5 413H491.5L508 399L526 381L526.233 380.087L532.5 355.5L540 329.5L532.5 309L540 299L558 276L551.5 247.5L540 219.5L532.5 192.5V167L514.5 137.5L500 111.5L491.5 91L473.5 67L447.5 54L410.5 40L379.5 22L350 15.5H319.5L287.5 9L263 1.5L236 9H205L179.5 22L161.5 29.5ZM295 195.5L270 198L277 167.5L295 195.5Z" fill="url(#paint0_linear_2:20)" shape-rendering="crispEdges"/>
<path d="M270 198L295 195.5L277 167.5L270 198Z" fill="url(#paint1_linear_2:20)" shape-rendering="crispEdges"/>
<path d="M134.5 29.5H161.5M134.5 29.5L114 40M134.5 29.5L140 63M161.5 29.5L179.5 22M161.5 29.5L140 63M161.5 29.5L175.5 59M179.5 22L205 9M179.5 22L175.5 59M179.5 22L202 51M205 9H236M205 9L202 51M205 9L227 43.5M236 9L263 1.5M236 9L227 43.5M236 9L250 40M263 1.5L287.5 9M263 1.5L250 40M263 1.5L274 40M287.5 9L319.5 15.5M287.5 9L274 40M287.5 9L305 47.5M319.5 15.5H350M319.5 15.5L305 47.5M319.5 15.5L332 51M350 15.5L379.5 22M350 15.5L332 51M350 15.5L360.5 54M379.5 22L410.5 40M379.5 22L360.5 54M379.5 22L391.5 63M410.5 40L447.5 54M410.5 40L391.5 63M410.5 40L422 73.5M447.5 54L473.5 67M447.5 54L422 73.5M447.5 54L443.5 86.5M473.5 67L491.5 91M473.5 67L443.5 86.5M473.5 67L463.5 107M491.5 91L500 111.5M491.5 91L463.5 107M500 111.5L514.5 137.5M500 111.5L463.5 107M500 111.5L482.5 137.5M514.5 137.5L532.5 167M514.5 137.5H482.5M514.5 137.5L496 161.5M532.5 167V192.5M532.5 167L496 161.5M532.5 167L507 192.5M532.5 192.5L540 219.5M532.5 192.5H507M540 219.5L551.5 247.5M540 219.5L514.5 241.5M540 219.5L537.747 217.657M551.5 247.5L558 276M551.5 247.5L514.5 241.5M551.5 247.5L523 269.5M558 276L540 299M558 276L523 269.5M540 299L532.5 309M540 299L523 269.5M532.5 309L540 329.5M532.5 309H514.5M532.5 309L512 331.5M540 329.5L532.5 355.5M540 329.5L512 331.5M532.5 355.5L526.233 380.087M532.5 355.5L505.5 358M532.5 355.5L512 331.5M526 381L508 399M526 381L526.233 380.087M526 381L498 373.5M508 399L491.5 413M508 399L498 373.5M508 399L480.5 385M491.5 413H473.5M491.5 413L480.5 385M473.5 413L453 417M473.5 413L480.5 385M473.5 413L453 387M453 417L432.5 428.5M453 417V387M453 417L429.5 397M432.5 428.5L424.5 446.5M432.5 428.5L409.5 425.5M432.5 428.5L429.5 397M424.5 446.5L440 469.5M424.5 446.5L412 459.5M424.5 446.5L393 439.5M424.5 446.5L409.5 425.5M440 469.5L424.5 481M440 469.5L412 459.5M424.5 481L401.5 487.5M424.5 481L412 459.5M401.5 487.5L390 469.5M401.5 487.5L412 459.5M390 469.5L370.5 446.5M390 469.5L393 439.5M390 469.5L412 459.5M370.5 446.5L350 428.5M370.5 446.5L382 415M370.5 446.5L393 439.5M350 428.5L319.5 413M350 428.5L355.5 409M350 428.5L382 415M319.5 413L309 399M319.5 413L332 381M319.5 413L355.5 409M309 399L296.5 373.5M309 399L332 381M309 399L317.5 358M296.5 373.5L263 381M296.5 373.5L317.5 358M296.5 373.5L280 342M263 381L227 373.5M263 381L280 342M263 381L252 346.5M227 373.5L205 363M227 373.5L252 346.5M227 373.5L230 336.5M205 363L179.5 349M205 363L230 336.5M205 363L209.5 327M179.5 349L170.5 329.5M179.5 349L209.5 327M170.5 329.5L145 340M170.5 329.5L209.5 327M170.5 329.5L205 302.5M170.5 329.5L175.5 299M170.5 329.5L145 302.5M145 340L114 349M145 340V302.5M145 340L114 315.5M114 349L83.5 340M114 349V315.5M83.5 340L57.5 315.5M83.5 340L93.5 295.5M83.5 340L114 315.5M57.5 315.5L32 299M57.5 315.5L69 276M57.5 315.5L93.5 295.5M32 299L14 276M32 299L69 276M32 299L48.5 257M14 276L5 255.5M14 276L48.5 257M5 255.5V233.5M5 255.5L39 229.5M5 255.5L48.5 257M5 233.5L14 204M5 233.5L39 229.5M14 204L5 178.5M14 204L47.5 199.5M14 204L39 229.5M5 178.5L14 152.5M5 178.5L45 167M5 178.5L47.5 199.5M14 152.5L32 122M14 152.5L45 167M14 152.5L53 148M32 122L41 102.5M32 122L64.5 125.5M32 122L53 148M41 102.5L57.5 81M41 102.5L64.5 125.5M57.5 81L93.5 67M57.5 81L89 107M57.5 81L64.5 125.5M93.5 67L114 40M93.5 67L114 91M93.5 67L89 107M114 40L140 63M114 40V91M140 63L114 91M140 63L145 102.5M140 63L170.5 91M140 63L175.5 59M114 91L145 102.5M114 91L89 107M114 91V117M145 102.5L170.5 91M145 102.5L114 117M145 102.5L140.5 133M145 102.5L183 118M170.5 91L175.5 59M170.5 91L183 118M170.5 91L202 88.5M175.5 59L202 51M175.5 59L200.203 86.5M202 51L227 43.5M202 51L233 79.5M202 51V88.5M227 43.5L250 40M227 43.5L233 79.5M250 40H274M250 40L267 77.5M250 40L233 79.5M274 40L305 47.5M274 40L299 81.5M274 40L267 77.5M305 47.5L332 51M305 47.5L299 81.5M332 51L360.5 54M332 51L323 91M332 51L345 84.5M332 51L299 81.5M360.5 54L391.5 63M360.5 54L373.5 91M360.5 54L345 84.5M391.5 63L422 73.5M391.5 63L406.5 100M391.5 63L373.5 91M422 73.5L443.5 86.5M422 73.5L406.5 100M422 73.5L430.5 111.5M443.5 86.5L463.5 107M443.5 86.5L430.5 111.5M463.5 107L482.5 137.5M463.5 107L450.5 137.5M463.5 107L430.5 111.5M482.5 137.5L496 161.5M482.5 137.5L461 165M482.5 137.5H450.5M496 161.5L507 192.5M496 161.5L461 165M496 161.5L470.5 189.5M507 192.5L537.747 217.657M507 192.5L496 215M507 192.5L470.5 189.5M514.5 241.5L496 215M514.5 241.5L487 251M514.5 241.5L523 269.5M496 215L537.747 217.657M496 215L470.5 189.5M496 215L487 251M496 215L470.5 230.5M470.5 189.5L461 165M470.5 189.5V230.5M470.5 189.5L447.5 205.5M461 165H435M461 165L447.5 205.5M461 165L450.5 137.5M89 107L64.5 125.5M89 107V143M89 107L114 117M114 117V158M114 117L89 143M114 117L140.5 133M114 158L106.5 185.5M114 158L89 143M114 158L77 178.5M114 158L143.5 187.5M114 158L140.5 133M106.5 185.5L114 219.5M106.5 185.5L77 178.5M106.5 185.5L77 211.5M106.5 185.5L143.5 187.5M114 219.5L100 252M114 219.5L153 211.5M114 219.5L77 241M114 219.5L77 211.5M114 219.5L143.5 187.5M114 219.5L132 241.5M100 252L93.5 295.5M100 252L69 276M100 252L77 241M100 252L132 241.5M100 252L120.5 274.5M93.5 295.5L69 276M93.5 295.5L114 315.5M93.5 295.5L120.5 274.5M114 315.5L145 302.5M114 315.5L120.5 274.5M145 302.5L175.5 299M145 302.5L147.5 271M145 302.5L120.5 274.5M175.5 299L205 302.5M175.5 299L184 274.5M175.5 299L147.5 271M205 302.5L232.5 309M205 302.5L209.5 327M205 302.5L184 274.5M205 302.5L224 274.5M232.5 309L266 316M232.5 309L230 336.5M232.5 309L209.5 327M232.5 309L224 274.5M232.5 309L256 286.5M266 316L280 342M266 316L252 346.5M266 316L230 336.5M266 316L266.268 315.5M266 316L295 315.525M296.5 315.5L324 325M296.5 315.5L317.5 358M296.5 315.5L280 342M296.5 315.5L308 286.5M296.5 315.5L295 315.525M324 325L368 336.5M324 325L346 352.5M324 325L317.5 358M324 325L336.5 299M324 325L308 286.5M368 336.5L389 327M368 336.5L346 352.5M368 336.5L380 360.5M368 336.5L396.5 352.5M368 336.5L336.5 299M368 336.5L365 309M389 327L418 319.5M389 327L396.5 352.5M389 327L418 344M389 327L365 309M389 327L395.5 294M418 319.5H443.5M418 319.5V344M418 319.5L439 344M418 319.5L395.5 294M418 319.5L425 289.5M443.5 319.5L467.5 320.5M443.5 319.5L463.5 344M443.5 319.5L439 344M443.5 319.5L425 289.5M443.5 319.5L450.5 289.5M467.5 320.5L490.5 312.5M467.5 320.5L487 340M467.5 320.5L463.5 344M467.5 320.5L475.5 282M467.5 320.5L450.5 289.5M490.5 312.5L514.5 309M490.5 312.5L512 331.5M490.5 312.5L487 340M490.5 312.5L499 278.5M490.5 312.5L475.5 282M514.5 309L512 331.5M514.5 309L523 269.5M514.5 309L499 278.5M512 331.5L487 340M512 331.5L505.5 358M487 340L463.5 344M487 340L505.5 358M487 340L476.5 365M463.5 344H439M463.5 344L476.5 365M463.5 344L450 365M439 344H418M439 344L450 365M439 344L422.5 373.5M418 344L396.5 352.5M418 344L422.5 373.5M396.5 352.5L380 360.5M396.5 352.5L394.5 375M396.5 352.5L422.5 373.5M380 360.5L360.5 376.5M380 360.5L346 352.5M380 360.5L394.5 375M360.5 376.5L332 381M360.5 376.5L346 352.5M360.5 376.5L317.5 358M360.5 376.5L370.5 393M360.5 376.5L394.5 375M332 381L317.5 358M332 381L355.5 409M332 381L370.5 393M317.5 358L346 352.5M317.5 358L280 342M209.5 327L230 336.5M230 336.5L252 346.5M252 346.5L280 342M412 459.5L393 439.5M393 439.5L382 415M393 439.5L409.5 425.5M382 415L370.5 393M382 415L355.5 409M382 415L409.5 425.5M382 415L402.5 393M370.5 393L355.5 409M370.5 393L394.5 375M370.5 393H402.5M394.5 375L422.5 373.5M394.5 375L402.5 393M422.5 373.5L450 365M422.5 373.5L402.5 393M422.5 373.5L429.5 397M450 365H476.5M450 365L429.5 397M450 365L453 387M476.5 365L505.5 358M476.5 365L453 387M476.5 365L480.5 385M476.5 365L498 373.5M505.5 358L526.233 380.087M505.5 358L498 373.5M498 373.5L480.5 385M480.5 385L453 387M453 387L429.5 397M429.5 397L402.5 393M429.5 397L409.5 425.5M402.5 393L409.5 425.5M435 165L411.5 172M435 165L423 205.5M435 165L447.5 205.5M435 165L450.5 137.5M435 165L410.5 135.5M411.5 172L393 191M411.5 172L423 205.5M411.5 172L410.5 135.5M411.5 172L382 158M393 191L380 211.5M393 191L406.5 230.5M393 191L382 158M393 191L363 172M393 191L423 205.5M380 211.5L352 208M380 211.5V239.5M380 211.5L406.5 230.5M380 211.5L352 237.5M380 211.5L363 172M352 208L321.5 192.5M352 208L323 223.5M352 208V237.5M352 208L363 172M352 208L340.5 177M321.5 192.5L295 195.5M321.5 192.5L323 223.5M321.5 192.5L340.5 177M321.5 192.5L323 156M321.5 192.5L302 165M295 195.5L281 233M295 195.5L270 198M295 195.5L323 223.5M295 195.5L302 165M295 195.5L277 167.5M281 233L247.5 211.5M281 233L270 198M281 233L323 223.5M281 233L278 256M281 233L313 252.5M247.5 211.5L216 183.5M247.5 211.5L210.5 208M247.5 211.5L270 198M247.5 211.5L235 233M247.5 211.5L239.5 174M247.5 211.5L278 256M247.5 211.5L253 259M216 183.5L210.5 208M216 183.5L182.5 189M216 183.5L197.5 150M216 183.5L239.5 174M216 183.5L225.5 139.5M210.5 208L187.5 221.5M210.5 208L182.5 189M210.5 208L235 233M210.5 208L219.5 243.5M187.5 221.5L153 211.5M187.5 221.5L182.5 189M187.5 221.5L164 243.5M187.5 221.5L219.5 243.5M187.5 221.5L199.5 256M153 211.5L143.5 187.5M153 211.5L182.5 189M153 211.5L132 241.5M153 211.5L164 243.5M64.5 125.5L53 148M64.5 125.5L89 143M53 148L45 167M53 148L77 178.5M53 148L89 143M45 167L47.5 199.5M45 167L77 178.5M47.5 199.5L39 229.5M47.5 199.5L77 178.5M47.5 199.5L77 211.5M39 229.5L48.5 257M39 229.5L77 241M39 229.5L77 211.5M48.5 257L69 276M48.5 257L77 241M69 276L77 241M77 241V211.5M89 143L77 178.5M77 178.5V211.5M270 198L239.5 174M270 198L277 167.5M323 223.5L313 252.5M323 223.5L352 237.5M182.5 189L143.5 187.5M182.5 189L168 158M182.5 189L197.5 150M143.5 187.5L140.5 133M143.5 187.5L168 158M183 118L197.5 150M183 118L168 158M183 118L140.5 133M183 118L202 88.5M183 118L229.5 111.5M183 118L225.5 139.5M197.5 150L168 158M197.5 150L225.5 139.5M168 158L140.5 133M235 233L219.5 243.5M235 233L253 259M219.5 243.5L199.5 256M219.5 243.5L224 274.5M219.5 243.5L253 259M199.5 256L184 274.5M199.5 256L164 243.5M199.5 256L224 274.5M184 274.5L164 243.5M184 274.5L147.5 271M184 274.5H224M147.5 271L164 243.5M147.5 271L120.5 274.5M147.5 271L132 241.5M164 243.5L132 241.5M132 241.5L120.5 274.5M239.5 174L225.5 139.5M239.5 174L254 137.5M239.5 174L277 167.5M285 280.5L278 256M285 280.5L266.268 315.5M285 280.5L256 286.5M285 280.5L308 286.5M285 280.5L295 315.525M285 280.5L313 252.5M278 256L253 259M278 256L256 286.5M278 256L313 252.5M253 259L256 286.5M253 259L224 274.5M256 286.5L224 274.5M256 286.5L266.268 315.5M523 269.5L487 251M523 269.5L499 278.5M487 251L470.5 230.5M487 251L454 259M487 251L475.5 282M487 251L499 278.5M470.5 230.5L447.5 205.5M470.5 230.5L435 247.5M470.5 230.5L454 259M447.5 205.5L435 247.5M447.5 205.5H423M435 247.5L425 289.5M435 247.5L400.5 259M435 247.5L406.5 230.5M435 247.5L423 205.5M435 247.5L454 259M425 289.5L400.5 259M425 289.5L395.5 294M425 289.5H450.5M425 289.5L454 259M400.5 259L406.5 230.5M400.5 259L395.5 294M400.5 259L367 274M400.5 259L380 239.5M406.5 230.5L380 239.5M406.5 230.5L423 205.5M380 239.5L367 274M380 239.5L352 237.5M367 274L395.5 294M367 274L336.5 261.5M367 274L365 309M367 274L336.5 299M367 274L352 237.5M395.5 294L365 309M365 309L336.5 299M336.5 299V261.5M336.5 299L308 286.5M336.5 261.5L313 252.5M336.5 261.5L308 286.5M336.5 261.5L352 237.5M313 252.5L308 286.5M313 252.5L352 237.5M450.5 289.5L475.5 282M450.5 289.5L454 259M475.5 282L499 278.5M475.5 282L454 259M450.5 137.5L410.5 135.5M450.5 137.5L430.5 111.5M410.5 135.5L430.5 111.5M410.5 135.5H376M410.5 135.5L382 158M410.5 135.5L386.5 116M410.5 135.5L406.5 100M430.5 111.5L406.5 100M406.5 100L386.5 116M406.5 100L373.5 91M386.5 116L373.5 91M386.5 116L357.5 111.5M373.5 91L357.5 111.5M373.5 91L345 84.5M357.5 111.5L376 135.5M357.5 111.5L350 141M357.5 111.5L323 121M357.5 111.5L345 84.5M376 135.5L382 158M376 135.5L350 141M382 158L363 172M382 158L350 141M363 172L350 141M363 172L340.5 177M350 141L340.5 177M350 141L323 121M350 141L323 156M340.5 177L323 156M323 156V121M323 156L302 165M323 156L295 133M323 121L345 84.5M323 121L281 107M323 121V91M323 121L295 133M345 84.5L323 91M323 91L299 81.5M323 91L281 107M299 81.5L267 77.5M299 81.5L281 107M267 77.5L281 107M267 77.5L229.5 111.5M267 77.5L233 79.5M281 107L295 133M281 107L254 137.5M281 107L229.5 111.5M295 133L302 165M295 133L277 167.5M295 133L254 137.5M302 165L277 167.5M277 167.5L254 137.5M254 137.5L225.5 139.5M254 137.5L229.5 111.5M225.5 139.5L229.5 111.5M229.5 111.5L233 79.5M229.5 111.5L200.203 86.5M233 79.5L202 88.5M202 88.5L200.203 86.5" stroke="#00DBDB" shape-rendering="crispEdges"/>
<path d="M134.5 29.5H161.5M134.5 29.5L114 40M134.5 29.5L140 63M161.5 29.5L179.5 22M161.5 29.5L140 63M161.5 29.5L175.5 59M179.5 22L205 9M179.5 22L175.5 59M179.5 22L202 51M205 9H236M205 9L202 51M205 9L227 43.5M236 9L263 1.5M236 9L227 43.5M236 9L250 40M263 1.5L287.5 9M263 1.5L250 40M263 1.5L274 40M287.5 9L319.5 15.5M287.5 9L274 40M287.5 9L305 47.5M319.5 15.5H350M319.5 15.5L305 47.5M319.5 15.5L332 51M350 15.5L379.5 22M350 15.5L332 51M350 15.5L360.5 54M379.5 22L410.5 40M379.5 22L360.5 54M379.5 22L391.5 63M410.5 40L447.5 54M410.5 40L391.5 63M410.5 40L422 73.5M447.5 54L473.5 67M447.5 54L422 73.5M447.5 54L443.5 86.5M473.5 67L491.5 91M473.5 67L443.5 86.5M473.5 67L463.5 107M491.5 91L500 111.5M491.5 91L463.5 107M500 111.5L514.5 137.5M500 111.5L463.5 107M500 111.5L482.5 137.5M514.5 137.5L532.5 167M514.5 137.5H482.5M514.5 137.5L496 161.5M532.5 167V192.5M532.5 167L496 161.5M532.5 167L507 192.5M532.5 192.5L540 219.5M532.5 192.5H507M540 219.5L551.5 247.5M540 219.5L514.5 241.5M540 219.5L537.747 217.657M551.5 247.5L558 276M551.5 247.5L514.5 241.5M551.5 247.5L523 269.5M558 276L540 299M558 276L523 269.5M540 299L532.5 309M540 299L523 269.5M532.5 309L540 329.5M532.5 309H514.5M532.5 309L512 331.5M540 329.5L532.5 355.5M540 329.5L512 331.5M532.5 355.5L526.233 380.087M532.5 355.5L505.5 358M532.5 355.5L512 331.5M526 381L508 399M526 381L526.233 380.087M526 381L498 373.5M508 399L491.5 413M508 399L498 373.5M508 399L480.5 385M491.5 413H473.5M491.5 413L480.5 385M473.5 413L453 417M473.5 413L480.5 385M473.5 413L453 387M453 417L432.5 428.5M453 417V387M453 417L429.5 397M432.5 428.5L424.5 446.5M432.5 428.5L409.5 425.5M432.5 428.5L429.5 397M424.5 446.5L440 469.5M424.5 446.5L412 459.5M424.5 446.5L393 439.5M424.5 446.5L409.5 425.5M440 469.5L424.5 481M440 469.5L412 459.5M424.5 481L401.5 487.5M424.5 481L412 459.5M401.5 487.5L390 469.5M401.5 487.5L412 459.5M390 469.5L370.5 446.5M390 469.5L393 439.5M390 469.5L412 459.5M370.5 446.5L350 428.5M370.5 446.5L382 415M370.5 446.5L393 439.5M350 428.5L319.5 413M350 428.5L355.5 409M350 428.5L382 415M319.5 413L309 399M319.5 413L332 381M319.5 413L355.5 409M309 399L296.5 373.5M309 399L332 381M309 399L317.5 358M296.5 373.5L263 381M296.5 373.5L317.5 358M296.5 373.5L280 342M263 381L227 373.5M263 381L280 342M263 381L252 346.5M227 373.5L205 363M227 373.5L252 346.5M227 373.5L230 336.5M205 363L179.5 349M205 363L230 336.5M205 363L209.5 327M179.5 349L170.5 329.5M179.5 349L209.5 327M170.5 329.5L145 340M170.5 329.5L209.5 327M170.5 329.5L205 302.5M170.5 329.5L175.5 299M170.5 329.5L145 302.5M145 340L114 349M145 340V302.5M145 340L114 315.5M114 349L83.5 340M114 349V315.5M83.5 340L57.5 315.5M83.5 340L93.5 295.5M83.5 340L114 315.5M57.5 315.5L32 299M57.5 315.5L69 276M57.5 315.5L93.5 295.5M32 299L14 276M32 299L69 276M32 299L48.5 257M14 276L5 255.5M14 276L48.5 257M5 255.5V233.5M5 255.5L39 229.5M5 255.5L48.5 257M5 233.5L14 204M5 233.5L39 229.5M14 204L5 178.5M14 204L47.5 199.5M14 204L39 229.5M5 178.5L14 152.5M5 178.5L45 167M5 178.5L47.5 199.5M14 152.5L32 122M14 152.5L45 167M14 152.5L53 148M32 122L41 102.5M32 122L64.5 125.5M32 122L53 148M41 102.5L57.5 81M41 102.5L64.5 125.5M57.5 81L93.5 67M57.5 81L89 107M57.5 81L64.5 125.5M93.5 67L114 40M93.5 67L114 91M93.5 67L89 107M114 40L140 63M114 40V91M140 63L114 91M140 63L145 102.5M140 63L170.5 91M140 63L175.5 59M114 91L145 102.5M114 91L89 107M114 91V117M145 102.5L170.5 91M145 102.5L114 117M145 102.5L140.5 133M145 102.5L183 118M170.5 91L175.5 59M170.5 91L183 118M170.5 91L202 88.5M175.5 59L202 51M175.5 59L200.203 86.5M202 51L227 43.5M202 51L233 79.5M202 51V88.5M227 43.5L250 40M227 43.5L233 79.5M250 40H274M250 40L267 77.5M250 40L233 79.5M274 40L305 47.5M274 40L299 81.5M274 40L267 77.5M305 47.5L332 51M305 47.5L299 81.5M332 51L360.5 54M332 51L323 91M332 51L345 84.5M332 51L299 81.5M360.5 54L391.5 63M360.5 54L373.5 91M360.5 54L345 84.5M391.5 63L422 73.5M391.5 63L406.5 100M391.5 63L373.5 91M422 73.5L443.5 86.5M422 73.5L406.5 100M422 73.5L430.5 111.5M443.5 86.5L463.5 107M443.5 86.5L430.5 111.5M463.5 107L482.5 137.5M463.5 107L450.5 137.5M463.5 107L430.5 111.5M482.5 137.5L496 161.5M482.5 137.5L461 165M482.5 137.5H450.5M496 161.5L507 192.5M496 161.5L461 165M496 161.5L470.5 189.5M507 192.5L537.747 217.657M507 192.5L496 215M507 192.5L470.5 189.5M514.5 241.5L496 215M514.5 241.5L487 251M514.5 241.5L523 269.5M496 215L537.747 217.657M496 215L470.5 189.5M496 215L487 251M496 215L470.5 230.5M470.5 189.5L461 165M470.5 189.5V230.5M470.5 189.5L447.5 205.5M461 165H435M461 165L447.5 205.5M461 165L450.5 137.5M89 107L64.5 125.5M89 107V143M89 107L114 117M114 117V158M114 117L89 143M114 117L140.5 133M114 158L106.5 185.5M114 158L89 143M114 158L77 178.5M114 158L143.5 187.5M114 158L140.5 133M106.5 185.5L114 219.5M106.5 185.5L77 178.5M106.5 185.5L77 211.5M106.5 185.5L143.5 187.5M114 219.5L100 252M114 219.5L153 211.5M114 219.5L77 241M114 219.5L77 211.5M114 219.5L143.5 187.5M114 219.5L132 241.5M100 252L93.5 295.5M100 252L69 276M100 252L77 241M100 252L132 241.5M100 252L120.5 274.5M93.5 295.5L69 276M93.5 295.5L114 315.5M93.5 295.5L120.5 274.5M114 315.5L145 302.5M114 315.5L120.5 274.5M145 302.5L175.5 299M145 302.5L147.5 271M145 302.5L120.5 274.5M175.5 299L205 302.5M175.5 299L184 274.5M175.5 299L147.5 271M205 302.5L232.5 309M205 302.5L209.5 327M205 302.5L184 274.5M205 302.5L224 274.5M232.5 309L266 316M232.5 309L230 336.5M232.5 309L209.5 327M232.5 309L224 274.5M232.5 309L256 286.5M266 316L280 342M266 316L252 346.5M266 316L230 336.5M266 316L266.268 315.5M266 316L295 315.525M296.5 315.5L324 325M296.5 315.5L317.5 358M296.5 315.5L280 342M296.5 315.5L308 286.5M296.5 315.5L295 315.525M324 325L368 336.5M324 325L346 352.5M324 325L317.5 358M324 325L336.5 299M324 325L308 286.5M368 336.5L389 327M368 336.5L346 352.5M368 336.5L380 360.5M368 336.5L396.5 352.5M368 336.5L336.5 299M368 336.5L365 309M389 327L418 319.5M389 327L396.5 352.5M389 327L418 344M389 327L365 309M389 327L395.5 294M418 319.5H443.5M418 319.5V344M418 319.5L439 344M418 319.5L395.5 294M418 319.5L425 289.5M443.5 319.5L467.5 320.5M443.5 319.5L463.5 344M443.5 319.5L439 344M443.5 319.5L425 289.5M443.5 319.5L450.5 289.5M467.5 320.5L490.5 312.5M467.5 320.5L487 340M467.5 320.5L463.5 344M467.5 320.5L475.5 282M467.5 320.5L450.5 289.5M490.5 312.5L514.5 309M490.5 312.5L512 331.5M490.5 312.5L487 340M490.5 312.5L499 278.5M490.5 312.5L475.5 282M514.5 309L512 331.5M514.5 309L523 269.5M514.5 309L499 278.5M512 331.5L487 340M512 331.5L505.5 358M487 340L463.5 344M487 340L505.5 358M487 340L476.5 365M463.5 344H439M463.5 344L476.5 365M463.5 344L450 365M439 344H418M439 344L450 365M439 344L422.5 373.5M418 344L396.5 352.5M418 344L422.5 373.5M396.5 352.5L380 360.5M396.5 352.5L394.5 375M396.5 352.5L422.5 373.5M380 360.5L360.5 376.5M380 360.5L346 352.5M380 360.5L394.5 375M360.5 376.5L332 381M360.5 376.5L346 352.5M360.5 376.5L317.5 358M360.5 376.5L370.5 393M360.5 376.5L394.5 375M332 381L317.5 358M332 381L355.5 409M332 381L370.5 393M317.5 358L346 352.5M317.5 358L280 342M209.5 327L230 336.5M230 336.5L252 346.5M252 346.5L280 342M412 459.5L393 439.5M393 439.5L382 415M393 439.5L409.5 425.5M382 415L370.5 393M382 415L355.5 409M382 415L409.5 425.5M382 415L402.5 393M370.5 393L355.5 409M370.5 393L394.5 375M370.5 393H402.5M394.5 375L422.5 373.5M394.5 375L402.5 393M422.5 373.5L450 365M422.5 373.5L402.5 393M422.5 373.5L429.5 397M450 365H476.5M450 365L429.5 397M450 365L453 387M476.5 365L505.5 358M476.5 365L453 387M476.5 365L480.5 385M476.5 365L498 373.5M505.5 358L526.233 380.087M505.5 358L498 373.5M498 373.5L480.5 385M480.5 385L453 387M453 387L429.5 397M429.5 397L402.5 393M429.5 397L409.5 425.5M402.5 393L409.5 425.5M435 165L411.5 172M435 165L423 205.5M435 165L447.5 205.5M435 165L450.5 137.5M435 165L410.5 135.5M411.5 172L393 191M411.5 172L423 205.5M411.5 172L410.5 135.5M411.5 172L382 158M393 191L380 211.5M393 191L406.5 230.5M393 191L382 158M393 191L363 172M393 191L423 205.5M380 211.5L352 208M380 211.5V239.5M380 211.5L406.5 230.5M380 211.5L352 237.5M380 211.5L363 172M352 208L321.5 192.5M352 208L323 223.5M352 208V237.5M352 208L363 172M352 208L340.5 177M321.5 192.5L295 195.5M321.5 192.5L323 223.5M321.5 192.5L340.5 177M321.5 192.5L323 156M321.5 192.5L302 165M295 195.5L281 233M295 195.5L270 198M295 195.5L323 223.5M295 195.5L302 165M295 195.5L277 167.5M281 233L247.5 211.5M281 233L270 198M281 233L323 223.5M281 233L278 256M281 233L313 252.5M247.5 211.5L216 183.5M247.5 211.5L210.5 208M247.5 211.5L270 198M247.5 211.5L235 233M247.5 211.5L239.5 174M247.5 211.5L278 256M247.5 211.5L253 259M216 183.5L210.5 208M216 183.5L182.5 189M216 183.5L197.5 150M216 183.5L239.5 174M216 183.5L225.5 139.5M210.5 208L187.5 221.5M210.5 208L182.5 189M210.5 208L235 233M210.5 208L219.5 243.5M187.5 221.5L153 211.5M187.5 221.5L182.5 189M187.5 221.5L164 243.5M187.5 221.5L219.5 243.5M187.5 221.5L199.5 256M153 211.5L143.5 187.5M153 211.5L182.5 189M153 211.5L132 241.5M153 211.5L164 243.5M64.5 125.5L53 148M64.5 125.5L89 143M53 148L45 167M53 148L77 178.5M53 148L89 143M45 167L47.5 199.5M45 167L77 178.5M47.5 199.5L39 229.5M47.5 199.5L77 178.5M47.5 199.5L77 211.5M39 229.5L48.5 257M39 229.5L77 241M39 229.5L77 211.5M48.5 257L69 276M48.5 257L77 241M69 276L77 241M77 241V211.5M89 143L77 178.5M77 178.5V211.5M270 198L239.5 174M270 198L277 167.5M323 223.5L313 252.5M323 223.5L352 237.5M182.5 189L143.5 187.5M182.5 189L168 158M182.5 189L197.5 150M143.5 187.5L140.5 133M143.5 187.5L168 158M183 118L197.5 150M183 118L168 158M183 118L140.5 133M183 118L202 88.5M183 118L229.5 111.5M183 118L225.5 139.5M197.5 150L168 158M197.5 150L225.5 139.5M168 158L140.5 133M235 233L219.5 243.5M235 233L253 259M219.5 243.5L199.5 256M219.5 243.5L224 274.5M219.5 243.5L253 259M199.5 256L184 274.5M199.5 256L164 243.5M199.5 256L224 274.5M184 274.5L164 243.5M184 274.5L147.5 271M184 274.5H224M147.5 271L164 243.5M147.5 271L120.5 274.5M147.5 271L132 241.5M164 243.5L132 241.5M132 241.5L120.5 274.5M239.5 174L225.5 139.5M239.5 174L254 137.5M239.5 174L277 167.5M285 280.5L278 256M285 280.5L266.268 315.5M285 280.5L256 286.5M285 280.5L308 286.5M285 280.5L295 315.525M285 280.5L313 252.5M278 256L253 259M278 256L256 286.5M278 256L313 252.5M253 259L256 286.5M253 259L224 274.5M256 286.5L224 274.5M256 286.5L266.268 315.5M523 269.5L487 251M523 269.5L499 278.5M487 251L470.5 230.5M487 251L454 259M487 251L475.5 282M487 251L499 278.5M470.5 230.5L447.5 205.5M470.5 230.5L435 247.5M470.5 230.5L454 259M447.5 205.5L435 247.5M447.5 205.5H423M435 247.5L425 289.5M435 247.5L400.5 259M435 247.5L406.5 230.5M435 247.5L423 205.5M435 247.5L454 259M425 289.5L400.5 259M425 289.5L395.5 294M425 289.5H450.5M425 289.5L454 259M400.5 259L406.5 230.5M400.5 259L395.5 294M400.5 259L367 274M400.5 259L380 239.5M406.5 230.5L380 239.5M406.5 230.5L423 205.5M380 239.5L367 274M380 239.5L352 237.5M367 274L395.5 294M367 274L336.5 261.5M367 274L365 309M367 274L336.5 299M367 274L352 237.5M395.5 294L365 309M365 309L336.5 299M336.5 299V261.5M336.5 299L308 286.5M336.5 261.5L313 252.5M336.5 261.5L308 286.5M336.5 261.5L352 237.5M313 252.5L308 286.5M313 252.5L352 237.5M450.5 289.5L475.5 282M450.5 289.5L454 259M475.5 282L499 278.5M475.5 282L454 259M450.5 137.5L410.5 135.5M450.5 137.5L430.5 111.5M410.5 135.5L430.5 111.5M410.5 135.5H376M410.5 135.5L382 158M410.5 135.5L386.5 116M410.5 135.5L406.5 100M430.5 111.5L406.5 100M406.5 100L386.5 116M406.5 100L373.5 91M386.5 116L373.5 91M386.5 116L357.5 111.5M373.5 91L357.5 111.5M373.5 91L345 84.5M357.5 111.5L376 135.5M357.5 111.5L350 141M357.5 111.5L323 121M357.5 111.5L345 84.5M376 135.5L382 158M376 135.5L350 141M382 158L363 172M382 158L350 141M363 172L350 141M363 172L340.5 177M350 141L340.5 177M350 141L323 121M350 141L323 156M340.5 177L323 156M323 156V121M323 156L302 165M323 156L295 133M323 121L345 84.5M323 121L281 107M323 121V91M323 121L295 133M345 84.5L323 91M323 91L299 81.5M323 91L281 107M299 81.5L267 77.5M299 81.5L281 107M267 77.5L281 107M267 77.5L229.5 111.5M267 77.5L233 79.5M281 107L295 133M281 107L254 137.5M281 107L229.5 111.5M295 133L302 165M295 133L277 167.5M295 133L254 137.5M302 165L277 167.5M277 167.5L254 137.5M254 137.5L225.5 139.5M254 137.5L229.5 111.5M225.5 139.5L229.5 111.5M229.5 111.5L233 79.5M229.5 111.5L200.203 86.5M233 79.5L202 88.5M202 88.5L200.203 86.5" stroke="url(#paint2_radial_2:20)" stroke-opacity="0.14" style="mix-blend-mode:multiply" shape-rendering="crispEdges"/>
</g>
<g filter="url(#filter2_b_2:20)">
<path d="M134 29.5L123.5 67M134 29.5H162L179.5 21.5M134 29.5L114 40.5L94 67L93.5982 67.1555M134 29.5L160 57.5M123.5 67L160 57.5M123.5 67L140.5 87M123.5 67L93.5982 67.1555M123.5 67L111 104.5M160 57.5L182 73.5M160 57.5L179.5 21.5M160 57.5L168.5 101.5M160 57.5L140.5 87M182 73.5L211.5 37.5M182 73.5L179.5 21.5M182 73.5L198.5 108.5M182 73.5H216.5M182 73.5L168.5 101.5M211.5 37.5L216.5 73.5M211.5 37.5L240.5 34.5M211.5 37.5L235 8.5M211.5 37.5L179.5 21.5M216.5 73.5L240.5 34.5M216.5 73.5L252 104.5M216.5 73.5L234 120M216.5 73.5L198.5 108.5M216.5 73.5L255.5 67M240.5 34.5L255.5 67M240.5 34.5L264 1.5M240.5 34.5L288.5 40M240.5 34.5L235 8.5M255.5 67L288.5 40M255.5 67L286 73.5M255.5 67L252 104.5M288.5 40L286 73.5M288.5 40L320 15M288.5 40V9.5M288.5 40L264 1.5M288.5 40L318.5 44M286 73.5L318.5 44M286 73.5L297.5 101.5M286 73.5L321.5 79.5M286 73.5L252 104.5M318.5 44L349 46.5M318.5 44L321.5 79.5M318.5 44L350 15M318.5 44L320 15M349 46.5L321.5 79.5M349 46.5L360.5 79.5M349 46.5L382 54M349 46.5L380 22M349 46.5L350 15M321.5 79.5H360.5M321.5 79.5L340 108.5M321.5 79.5L297.5 101.5M360.5 79.5L382 54M360.5 79.5L375 108.5M360.5 79.5L340 108.5M360.5 79.5L392.5 87M382 54L412.5 64M382 54L392.5 87M382 54L410.5 40M382 54L380 22M412.5 64L392.5 87M412.5 64L447.5 54M412.5 64L439.5 73.5M412.5 64L410.5 40M392.5 87L433 101.5M392.5 87L403.5 120M392.5 87L375 108.5M433 101.5L439.5 73.5M433 101.5L427 132.5M433 101.5L447.5 123.5M433 101.5L460 91M433 101.5L403.5 120M439.5 73.5L460 91M439.5 73.5L473.5 67M439.5 73.5L447.5 54M460 91L447.5 123.5M460 91L480.5 120M460 91H492M460 91L473.5 67M447.5 123.5L480.5 120M447.5 123.5L434.5 155M447.5 123.5L427 132.5M480.5 120L465 148M480.5 120L500 111.5M480.5 120L492 91M480.5 120L495.5 148M465 148H495.5M465 148L476.5 174M465 148L446 179M465 148L434.5 155M495.5 148L476.5 174M495.5 148L511 175.5M495.5 148L515 137M495.5 148L500 111.5M476.5 174L511 175.5M476.5 174L492 199.5M476.5 174L462 206.5M476.5 174L446 179M511 175.5L492 199.5M511 175.5L515 206.5M511 175.5L532.5 167M511 175.5L515 137M492 199.5L515 206.5M492 199.5L462 206.5M515 206.5L495.5 232.5M515 206.5L540 219M515 206.5L532.5 193M515 206.5L532.5 167M495.5 232.5L526 251.5M495.5 232.5L470.5 248M495.5 232.5L462 206.5M495.5 232.5L540 219M526 251.5L498 265.5M526 251.5L540 219M526 251.5L551.5 248M526 251.5L558 275.5M526 251.5V282M498 265.5L526 282M498 265.5L457.5 271M498 265.5L476.5 299M498 265.5L500 299M498 265.5L470.5 248M526 282L500 299M526 282L558 275.5M526 282L540 299M526 282L532.5 308.5M500 299L519.5 318M500 299H476.5M500 299L494 328M500 299L532.5 308.5M519.5 318L494 328M519.5 318L532.5 308.5M519.5 318L540 330M519.5 318L513.5 347M494 328L513.5 347M494 328H463.5M494 328L476.5 299M494 328L487 349.5M513.5 347L487 349.5M513.5 347L526 380M513.5 347L540 330M513.5 347L532.5 356M513.5 347L507 368.5M487 349.5L507 368.5M487 349.5L457.5 371.5M487 349.5L495.5 379M487 349.5L463.5 328M507 368.5L495.5 379M507 368.5L526 380M507 368.5L508.5 398.5M495.5 379L472.5 392.5M495.5 379L457.5 371.5M495.5 379L508.5 398.5M495.5 379L492.5 413M472.5 392.5L457.5 371.5M472.5 392.5L492.5 413M472.5 392.5L453 417M457.5 371.5L440.5 396M457.5 371.5L463.5 328M457.5 371.5L430 349.5M457.5 371.5L428 377.5M440.5 396L415 406.5M440.5 396L453 417M440.5 396L432 428M440.5 396L428 377.5M415 406.5L383 414M415 406.5L432 428M415 406.5L428 377.5M415 406.5L408.5 368.5M415 406.5L391.5 388M415 406.5L410 425.5M383 414L386.5 434M383 414L352.5 396M383 414L350 428M383 414L391.5 388M383 414L410 425.5M386.5 434L401.5 454.5M386.5 434L424.5 447M386.5 434L371 447M386.5 434L410 425.5M386.5 434L350 428M386.5 434L352.5 396M401.5 454.5V487.5M401.5 454.5L424.5 447M401.5 454.5L411.5 460M401.5 487.5L390 470M401.5 487.5L424.5 481M401.5 487.5L411.5 460M390 470L371 447M390 470L411.5 460M371 447L350 428M371 447L411.5 460M350 428L352.5 396M350 428L320.5 413M352.5 396L391.5 388M352.5 396L320.5 413M352.5 396L360 376M352.5 396L322.5 380M391.5 388L408.5 368.5M391.5 388L383 351M391.5 388L360 376M408.5 368.5L428 377.5M408.5 368.5L407 326M408.5 368.5L430 349.5M408.5 368.5L383 351M428 377.5L430 349.5M430 349.5L440.5 343L463.5 328M430 349.5L407 326M430 349.5L432 326M463.5 328L476.5 299M463.5 328L432 326M463.5 328L440.5 304.5M476.5 299L457.5 271M476.5 299L440.5 304.5M457.5 271L470.5 248M457.5 271L440.5 304.5M457.5 271L426.5 257.5M457.5 271L410 284M470.5 248L462 206.5M470.5 248L426.5 257.5M470.5 248L433 217.5M462 206.5L433 217.5M462 206.5L446 179M433 217.5L446 179M433 217.5L410 184.5M433 217.5L392 215.5M433 217.5L426.5 257.5M433 217.5L397.5 241.5M446 179L434.5 155M446 179L410 184.5M434.5 155L427 132.5M434.5 155L390 146.5M434.5 155L410 184.5M427 132.5L403.5 120M403.5 120L390 146.5M403.5 120L375 108.5M403.5 120L364 134.5M390 146.5L364 134.5M390 146.5L350 169.5M390 146.5L410 184.5M390 146.5L378 191.5M364 134.5L375 108.5M364 134.5L350 169.5M364 134.5L336.5 142M364 134.5L340 108.5M375 108.5H340M340 108.5L336.5 142M340 108.5L297.5 101.5M340 108.5L315.5 129.5M336.5 142L315.5 129.5M336.5 142L318 174M336.5 142L350 169.5M315.5 129.5L297.5 101.5M315.5 129.5L294.5 151.5M315.5 129.5L318 174M315.5 129.5L275.5 125M297.5 101.5L275.5 125M297.5 101.5L252 104.5M275.5 125L252 104.5M275.5 125L247 142M275.5 125L269.5 175.5M275.5 125L294.5 151.5M275.5 125L234 120M252 104.5L234 120M234 120L247 142M234 120L200 131.5M234 120L198.5 108.5M247 142L216.5 150.5M247 142L234 169.5M247 142L269.5 175.5M216.5 150.5L200 131.5M216.5 150.5L205 175.5M216.5 150.5L234 169.5M216.5 150.5L179.5 162M200 131.5L198.5 108.5M200 131.5L179.5 162M200 131.5H170.5M198.5 108.5L168.5 101.5M198.5 108.5L170.5 131.5M168.5 101.5L140.5 87M168.5 101.5L137.5 120M168.5 101.5L170.5 131.5M140.5 87L111 104.5M140.5 87L137.5 120M111 104.5L137.5 120M111 104.5L93.5982 67.1555M111 104.5L78 108.5M111 104.5L102.5 143.5M137.5 120L170.5 131.5M137.5 120L102.5 143.5M137.5 120L140.5 159.5M170.5 131.5L179.5 162M170.5 131.5L140.5 159.5M179.5 162L140.5 159.5M179.5 162L153.5 196M179.5 162L181 200.5M179.5 162L205 175.5M140.5 159.5L102.5 143.5M140.5 159.5L104 175.5M140.5 159.5L126.5 191.5M140.5 159.5L153.5 196M102.5 143.5L78 108.5M102.5 143.5L104 175.5M102.5 143.5L67 166.5M78 108.5L54.5 128.5M78 108.5L41.5 101.5M78 108.5L93.5982 67.1555M78 108.5L67 166.5M54.5 128.5L40 155M54.5 128.5L32 121.5M54.5 128.5L41.5 101.5M54.5 128.5L67 166.5M40 155L67 166.5M40 155L37.5 181.5M40 155L14 152.5M40 155L32 121.5M67 166.5L37.5 181.5M67 166.5L68.5 199M67 166.5L104 175.5M37.5 181.5L35.5 215.5M37.5 181.5L14 152.5M37.5 181.5L14 204M37.5 181.5L68.5 199M35.5 215.5L68.5 199M35.5 215.5L14 204M35.5 215.5L5 233M35.5 215.5L62 230.5M35.5 215.5L34 260M68.5 199L62 230.5M68.5 199L104 175.5M68.5 199L97.5 205.5M62 230.5L34 260M62 230.5L99.5 239.5M62 230.5L84 273.5M62 230.5L59 273.5M62 230.5L97.5 205.5M34 260L59 273.5M34 260L32 299.5M34 260L14 276M34 260L5 233M59 273.5H84M59 273.5L57.5 315M59 273.5L32 299.5M84 273.5L98.5 310M84 273.5L57.5 315M84 273.5L99.5 239.5M84 273.5L110 276M98.5 310L110 276M98.5 310L84 339.5M98.5 310L57.5 315M98.5 310L131 313M110 276L131 313M110 276L155 291M110 276L123.5 250M110 276L150.5 257.5M110 276L99.5 239.5M131 313L155 291M131 313L145 339.5M131 313L114 348M131 313L84 339.5M155 291L170.5 329M155 291L145 339.5M155 291L184.5 276M155 291L150.5 257.5M155 291L176.5 299.5M170.5 329L176.5 299.5M170.5 329L145 339.5M170.5 329L179 349.5L205 362.5M170.5 329L200 321M176.5 299.5L200 321M176.5 299.5L208 285.5M200 321H229M200 321L205 362.5M200 321L208 285.5M229 321L241.5 347M229 321L205 362.5M229 321L253.5 318.5M229 321L239.5 291M229 321L208 285.5M241.5 347L253.5 318.5M241.5 347L263 381.5M241.5 347L226 373.5M241.5 347L205 362.5M241.5 347H271M253.5 318.5L271 347M253.5 318.5L283 321M253.5 318.5L271 295.5M253.5 318.5L239.5 291M271 347L296 373.5M271 347L263 381.5M271 347L295 338.5M271 347L283 321M296 373.5L295 338.5M296 373.5L263 381.5M296 373.5L308.5 398.5L320.5 413M296 373.5L322.5 380M296 373.5L317.5 357.5M295 338.5L317.5 357.5M295 338.5L283 321M295 338.5L314 326M317.5 357.5L322.5 380M317.5 357.5L314 326M317.5 357.5L341.5 334.5M317.5 357.5L347 354M322.5 380L347 354M322.5 380L320.5 413M322.5 380L360 376M347 354L360 376M347 354L341.5 334.5M347 354L363.5 321M347 354L383 351M360 376L383 351M383 351L407 326M383 351L363.5 321M383 351L389 310M407 326H432M407 326L410 284M407 326L389 310M407 326L440.5 304.5M432 326L440.5 304.5M440.5 304.5L410 284M410 284L426.5 257.5M410 284L392 267.5M410 284L362 287M410 284L389 310M426.5 257.5L397.5 241.5M426.5 257.5L392 267.5M397.5 241.5L392 215.5M397.5 241.5L392 267.5M397.5 241.5L354 260M397.5 241.5L362 224.5M392 215.5L410 184.5M392 215.5L362 224.5M392 215.5L378 191.5M410 184.5L378 191.5M378 191.5L350 169.5M378 191.5L362 224.5M378 191.5L331.5 209M350 169.5L318 174M350 169.5L331.5 209M318 174L294.5 151.5M318 174L283.5 189.5M318 174L331.5 209M294.5 151.5L269.5 175.5M294.5 151.5L283.5 189.5M269.5 175.5L234 169.5M269.5 175.5L248 212M269.5 175.5L283.5 189.5M234 169.5L205 175.5M234 169.5L226 202M234 169.5L248 212M205 175.5L181 200.5M205 175.5L226 202M181 200.5L153.5 196M181 200.5L205 216.5M181 200.5V237M181 200.5L153.5 229M153.5 196L126.5 191.5M153.5 196L152.5 228.776M153.5 196L129 223.5M126.5 191.5L104 175.5M126.5 191.5L129 223.5M126.5 191.5L97.5 205.5M104 175.5L97.5 205.5M97.5 205.5L99.5 239.5M97.5 205.5L129 223.5M99.5 239.5L123.5 250M99.5 239.5L129 223.5M123.5 250L129 223.5M123.5 250L153.5 229M123.5 250L150.5 257.5M129 223.5L152.5 228.776M153.5 229L150.5 257.5M153.5 229L181 237M153.5 229L152.5 228.776M150.5 257.5L184.5 276M150.5 257.5L181 237M184.5 276L181 237M184.5 276L208 285.5M181 237L205 216.5M181 237L220.5 243.5M205 216.5L226 202M205 216.5L220.5 243.5M226 202L220.5 243.5M226 202L248 212M220.5 243.5L208 285.5M220.5 243.5L241.5 270M208 285.5L239.5 291M208 285.5L241.5 270M239.5 291L241.5 270M239.5 291L271 295.5M241.5 270L248 212M241.5 270L276.5 267.5M241.5 270L271 295.5M241.5 270L269.5 234.5M248 212L283.5 189.5M248 212L269.5 234.5M283.5 189.5L269.5 234.5M283.5 189.5L331.5 209M283.5 189.5L299 220.5M269.5 234.5L276.5 267.5M269.5 234.5L299 220.5M276.5 267.5L271 295.5M276.5 267.5L299 220.5M276.5 267.5L325 238.5M276.5 267.5L318.5 265.5M276.5 267.5L296 291L271 295.5M271 295.5L283 321M283 321L296 292M283 321L314 326M296 292L314 326M296 292L325 297.5M296 292L318.5 265.5M314 326L341.5 334.5M314 326L325 297.5M314 326L339 310M341.5 334.5L363.5 321M341.5 334.5L339 310M363.5 321L389 310M363.5 321L339 310M363.5 321L362 287M389 310L362 287M362 287L339 310M362 287L325 297.5M362 287L354 260M362 287L392 267.5M339 310L325 297.5M325 297.5L318.5 265.5M325 297.5L354 260M318.5 265.5L299 220.5M318.5 265.5L354 260M318.5 265.5L325 238.5M299 220.5L331.5 209M299 220.5L325 238.5M331.5 209L362 224.5M331.5 209L325 238.5M362 224.5L325 238.5M362 224.5L354 260M325 238.5L354 260M354 260L392 267.5M424.5 447L410 425.5M424.5 447L440 469.5M424.5 447L411.5 460M410 425.5L432 428M440 469.5L424.5 481M440 469.5L411.5 460M424.5 481L411.5 460M432 428L453 417M453 417L474 413H492.5M492.5 413L508.5 398.5M508.5 398.5L526 380M526 380L532.5 356M532.5 356L540 330M540 330L532.5 308.5M532.5 308.5L540 299M540 299L558 275.5M558 275.5L551.5 248M551.5 248L540 219M540 219L532.5 193M532.5 193V167M532.5 167L515 137M515 137L500 111.5M500 111.5L492 91M492 91L473.5 67M473.5 67L447.5 54M447.5 54L410.5 40M410.5 40L380 22M380 22L350 15M350 15H320M320 15L288.5 9.5M288.5 9.5L264 1.5M264 1.5L235 8.5M235 8.5H205L179.5 21.5M41.5 101.5L57.5 80.5L93.5982 67.1555M41.5 101.5L32 121.5M32 121.5L14 152.5M14 152.5L4.5 178L14 204M14 204L5 233M5 233V255L14 276M14 276L32 299.5M32 299.5L57.5 315M57.5 315L84 339.5M84 339.5L114 348M114 348L145 339.5M205 362.5L226 373.5M226 373.5L263 381.5" stroke="#009A9A" stroke-width="0.2"/>
</g>
</g>
<defs>
<filter id="filter0_d_2:20" x="0.393412" y="0.979172" width="562.147" height="495.103" filterUnits="userSpaceOnUse" color-interpolation-filters="sRGB">
<feFlood flood-opacity="0" result="BackgroundImageFix"/>
<feColorMatrix in="SourceAlpha" type="matrix" values="0 0 0 0 0 0 0 0 0 0 0 0 0 0 0 0 0 0 127 0" result="hardAlpha"/>
<feOffset dy="4"/>
<feGaussianBlur stdDeviation="2"/>
<feComposite in2="hardAlpha" operator="out"/>
<feColorMatrix type="matrix" values="0 0 0 0 0 0 0 0 0 0 0 0 0 0 0 0 0 0 0.25 0"/>
<feBlend mode="normal" in2="BackgroundImageFix" result="effect1_dropShadow_2:20"/>
<feBlend mode="normal" in="SourceGraphic" in2="effect1_dropShadow_2:20" result="shape"/>
</filter>
<filter id="filter1_d_2:20" x="0.470337" y="0.979172" width="562.07" height="495.103" filterUnits="userSpaceOnUse" color-interpolation-filters="sRGB">
<feFlood flood-opacity="0" result="BackgroundImageFix"/>
<feColorMatrix in="SourceAlpha" type="matrix" values="0 0 0 0 0 0 0 0 0 0 0 0 0 0 0 0 0 0 127 0" result="hardAlpha"/>
<feOffset dy="4"/>
<feGaussianBlur stdDeviation="2"/>
<feComposite in2="hardAlpha" operator="out"/>
<feColorMatrix type="matrix" values="0 0 0 0 0 0 0 0 0 0 0 0 0 0 0 0 0 0 0.25 0"/>
<feBlend mode="normal" in2="BackgroundImageFix" result="effect1_dropShadow_2:20"/>
<feBlend mode="normal" in="SourceGraphic" in2="effect1_dropShadow_2:20" result="shape"/>
</filter>
<filter id="filter2_b_2:20" x="0.393412" y="-2.60387" width="561.715" height="494.22" filterUnits="userSpaceOnUse" color-interpolation-filters="sRGB">
<feFlood flood-opacity="0" result="BackgroundImageFix"/>
<feGaussianBlur in="BackgroundImage" stdDeviation="2"/>
<feComposite in2="SourceAlpha" operator="in" result="effect1_backgroundBlur_2:20"/>
<feBlend mode="normal" in="SourceGraphic" in2="effect1_backgroundBlur_2:20" result="shape"/>
</filter>
<linearGradient id="paint0_linear_2:20" x1="174.5" y1="25.5" x2="430.5" y2="488" gradientUnits="userSpaceOnUse">
<stop stop-color="#007084" stop-opacity="0.4"/>
<stop offset="0.536458" stop-color="#006E82" stop-opacity="0.25"/>
<stop offset="1" stop-color="#28349A" stop-opacity="0.3"/>
</linearGradient>
<linearGradient id="paint1_linear_2:20" x1="174.5" y1="25.5" x2="430.5" y2="488" gradientUnits="userSpaceOnUse">
<stop stop-color="#007084" stop-opacity="0.4"/>
<stop offset="0.536458" stop-color="#006E82" stop-opacity="0.25"/>
<stop offset="1" stop-color="#28349A" stop-opacity="0.3"/>
</linearGradient>
<radialGradient id="paint2_radial_2:20" cx="0" cy="0" r="1" gradientUnits="userSpaceOnUse" gradientTransform="translate(281.5 244.5) rotate(90) scale(243 276.5)">
<stop stop-color="#00DBDB"/>
<stop offset="1" stop-color="#007084" stop-opacity="0.9"/>
</radialGradient>
</defs>
</svg>
